<svg width="160" height="160" viewBox="0 0 160 160" fill="none" xmlns="http://www.w3.org/2000/svg">
<path d="M154.783 149.564H147.826V113.042C147.826 104.412 140.804 97.39 132.174 97.39H126.956V60.8681C126.956 52.2375 119.935 45.216 111.304 45.216H85.2172V40.8403C94.435 37.5713 98.44 26.7356 93.565 18.2803C93.5647 18.2797 93.5644 18.2791 93.5641 18.2781L84.5187 2.60783C82.5116 -0.869047 77.4844 -0.863422 75.4812 2.60814L66.4362 18.2791C61.5497 26.7472 65.5813 37.5772 74.7825 40.8403V45.216H48.6956C40.065 45.216 33.0434 52.2375 33.0434 60.8681V97.39H27.8263C19.1956 97.39 12.1741 104.412 12.1741 113.042C12.1741 114.333 12.1741 138.593 12.1741 149.564H5.2175C2.33594 149.564 0 151.9 0 154.782C0 157.663 2.33594 159.999 5.2175 159.999C8.35625 159.999 140.845 159.999 154.783 159.999C157.664 159.999 160 157.663 160 154.782C160 151.9 157.664 149.564 154.783 149.564ZM75.4741 23.495L80 15.6531L84.5253 23.4931C86.5159 26.9438 84.0097 31.3031 80 31.3031C75.9797 31.3031 73.4909 26.9325 75.4741 23.495ZM43.4781 60.8685C43.4781 57.9916 45.8188 55.651 48.6956 55.651H111.304C114.181 55.651 116.522 57.9916 116.522 60.8685V75.9022C116.035 75.4103 115.509 74.85 114.919 74.2075C111.893 70.9157 107.749 66.4075 100.64 66.4075C93.5344 66.4075 89.3916 70.9147 86.3666 74.2053C83.475 77.351 82.0687 78.6325 79.7703 78.6325C77.3981 78.6325 75.8719 77.1081 73.1584 74.1869C70.1091 70.9041 65.9331 66.4078 58.9006 66.4078C51.7953 66.4078 47.6522 70.915 44.6272 74.2056C44.2181 74.6506 43.8394 75.0588 43.4781 75.4375V60.8685ZM43.4781 88.0797C47.4359 86.5669 50.1606 83.605 52.3097 81.2672C55.1997 78.1228 56.6053 76.8422 58.9006 76.8422C61.2728 76.8422 62.7994 78.3666 65.5128 81.2878C68.5622 84.5706 72.7378 89.0669 79.7703 89.0669C86.8791 89.0669 91.0231 84.5588 94.0491 81.2669C96.9391 78.1225 98.3447 76.8419 100.64 76.8419C102.938 76.8419 104.345 78.1231 107.236 81.2691C109.472 83.7016 112.32 86.796 116.522 88.2463V97.39H43.4781V88.0797ZM22.6087 149.564V132.295C22.6116 132.298 22.6147 132.301 22.6175 132.305C26.2459 136.286 30.7619 141.241 38.0309 141.241C45.1397 141.241 49.2838 136.733 52.3097 133.441C55.1997 130.297 56.6053 129.016 58.9006 129.016C61.2728 129.016 62.7994 130.54 65.5128 133.462C68.5622 136.744 72.7378 141.241 79.7703 141.241C86.8791 141.241 91.0231 136.733 94.0491 133.441C96.9391 130.296 98.3447 129.016 100.64 129.016C102.938 129.016 104.345 130.297 107.236 133.443C110.261 136.734 114.404 141.241 121.51 141.241C128.618 141.241 132.762 136.733 135.788 133.441C136.379 132.798 136.905 132.238 137.392 131.746V149.564H22.6087ZM137.391 119.402C133.189 120.852 130.341 123.947 128.106 126.379C125.214 129.525 123.808 130.806 121.509 130.806C119.214 130.806 117.808 129.526 114.918 126.381C111.893 123.089 107.749 118.581 100.64 118.581C93.5341 118.581 89.3913 123.088 86.3663 126.379C83.4747 129.525 82.0684 130.806 79.77 130.806C77.3978 130.806 75.8716 129.282 73.1581 126.361C70.1088 123.078 65.9328 118.582 58.9003 118.582C51.7947 118.582 47.6519 123.089 44.6269 126.379C41.7353 129.525 40.3291 130.807 38.0306 130.807C35.5484 130.807 33.4653 128.717 30.3294 125.277C28.1303 122.863 25.7175 120.225 22.6081 118.485V113.043C22.6081 110.166 24.9487 107.825 27.8256 107.825C30.5762 107.825 129.282 107.825 132.173 107.825C135.05 107.825 137.391 110.166 137.391 113.043L137.391 119.402Z" fill="#30403C"/>
</svg>
