<svg width="160" height="142" viewBox="0 0 160 142" fill="none" xmlns="http://www.w3.org/2000/svg">
<path d="M155.312 47.5625H150.312V42.875C150.312 26.3737 138.068 12.6803 122.188 10.3988V5.375C122.188 2.78625 120.089 0.6875 117.5 0.6875C114.911 0.6875 112.812 2.78625 112.812 5.375V10.3988C96.9322 12.6803 84.6875 26.3734 84.6875 42.875V47.5625H75.3125V42.875C75.3125 26.3737 63.0678 12.6803 47.1875 10.3988V5.375C47.1875 2.78625 45.0888 0.6875 42.5 0.6875C39.9112 0.6875 37.8125 2.78625 37.8125 5.375V10.3988C21.9322 12.6803 9.6875 26.3737 9.6875 42.875V47.5625H4.6875C2.09875 47.5625 0 49.6612 0 52.25V110.967C0 112.904 1.19094 114.641 2.99719 115.339C7.725 117.167 10.1997 120.7 19.0625 122.079V131.938H4.6875C2.09875 131.938 0 134.036 0 136.625C0 139.214 2.09875 141.312 4.6875 141.312H155.312C157.901 141.312 160 139.214 160 136.625C160 134.036 157.901 131.938 155.312 131.938H140.938V122.15C149.777 120.913 152.778 117.258 157.09 115.491C158.85 114.77 160 113.056 160 111.153V52.25C160 49.6612 157.901 47.5625 155.312 47.5625ZM94.0625 42.875C94.0625 29.9516 104.577 19.4375 117.5 19.4375C130.423 19.4375 140.938 29.9516 140.938 42.875V47.5625H94.0625V42.875ZM19.0625 42.875C19.0625 29.9516 29.5766 19.4375 42.5 19.4375C55.4234 19.4375 65.9375 29.9516 65.9375 42.875V47.5625H19.0625V42.875ZM131.562 131.938H28.4375V122.104C32.7466 121.456 36.9325 119.897 40.6466 117.421C47.6094 112.779 56.6078 112.779 63.5712 117.421C73.6912 124.168 86.7728 124.17 96.8966 117.421C103.86 112.779 112.858 112.779 119.821 117.421C123.401 119.808 127.419 121.34 131.562 122.028L131.562 131.938ZM150.625 108.196C149.815 108.634 149.025 109.11 148.259 109.621C141.31 114.253 131.971 114.254 125.022 109.621C114.9 102.872 101.819 102.872 91.6966 109.621C84.7331 114.262 75.7353 114.263 68.7719 109.621C58.6503 102.873 45.5691 102.872 35.4466 109.621C28.4881 114.259 19.1441 114.244 12.2097 109.621C11.2962 109.012 10.3494 108.453 9.37531 107.947V56.9375H150.625L150.625 108.196Z" fill="#30403C"/>
</svg>
