<svg width="160" height="160" viewBox="0 0 160 160" fill="none" xmlns="http://www.w3.org/2000/svg">
<path d="M118.261 56.7012V15.6522C118.261 7.02156 111.239 0 102.609 0C93.9781 0 86.9566 7.02156 86.9566 15.6522C86.9566 18.5334 89.2925 20.8697 92.1741 20.8697C95.0556 20.8697 97.3916 18.5338 97.3916 15.6522C97.3916 12.7753 99.7322 10.4347 102.609 10.4347C105.486 10.4347 107.827 12.7753 107.827 15.6522V31.3044H73.0434V15.6522C73.0434 7.02156 66.0219 0 57.3912 0C48.7606 0 41.7391 7.02156 41.7391 15.6522C41.7391 18.5334 44.075 20.8697 46.9566 20.8697C49.8381 20.8697 52.1741 18.5338 52.1741 15.6522C52.1741 12.7753 54.5147 10.4347 57.3916 10.4347C60.2684 10.4347 62.6091 12.7753 62.6091 15.6522V55.6522H52.1744C23.4053 55.6522 0 79.0575 0 107.826C0 136.594 23.4053 160 52.1741 160H107.826C136.595 160 160 136.595 160 107.826C160 82.63 142.047 61.5484 118.261 56.7012ZM73.0434 41.7391H107.826V55.6522H73.0434V41.7391ZM73.0434 66.0869H107.826V86.2297C98.4756 87.4906 88.3725 86.1787 80.5941 82.2894C78.1484 81.0669 75.6219 80.0547 73.0434 79.2434V66.0869ZM107.826 149.565H52.1741C29.1591 149.565 10.435 130.841 10.435 107.826C10.435 84.8112 29.1591 66.0872 52.1741 66.0872H62.6088V77.1075C52.9388 76.1403 43.0403 77.8641 34.1884 82.29C31.6109 83.5788 30.5666 86.7125 31.8553 89.29C33.1437 91.8675 36.2775 92.9122 38.855 91.6231C50.4616 85.8197 64.3209 85.8197 75.9278 91.6231C90.7003 99.0091 111.224 98.9172 125.812 91.6231C128.389 90.3344 129.433 87.2006 128.145 84.6231C126.856 82.0456 123.723 81.0009 121.145 82.29C120.216 82.7544 119.251 83.1781 118.261 83.5691V67.4081C136.243 72.0534 149.565 88.4134 149.565 107.827C149.565 130.841 130.841 149.565 107.826 149.565Z" fill="#30403C"/>
<path d="M128.145 105.493C126.856 102.915 123.723 101.871 121.145 103.16C109.397 109.034 92.3425 109.034 80.5941 103.16C66.0653 95.8953 48.7172 95.8953 34.1884 103.16C31.6109 104.448 30.5666 107.582 31.8553 110.16C33.1437 112.737 36.2775 113.782 38.855 112.493C50.4616 106.689 64.3209 106.689 75.9278 112.493C90.6122 119.835 111.126 119.836 125.812 112.493C128.389 111.204 129.433 108.07 128.145 105.493Z" fill="#30403C"/>
<path d="M128.145 126.363C126.856 123.785 123.723 122.74 121.145 124.029C109.397 129.904 92.3425 129.904 80.5941 124.029C66.0653 116.765 48.7172 116.765 34.1884 124.029C31.6109 125.318 30.5666 128.452 31.8553 131.029C33.1437 133.607 36.2775 134.651 38.855 133.363C50.4616 127.559 64.3209 127.559 75.9278 133.363C90.6122 140.705 111.126 140.705 125.812 133.363C128.389 132.074 129.433 128.94 128.145 126.363Z" fill="#30403C"/>
</svg>
