<svg width="64" height="64" viewBox="0 0 64 64" fill="none" xmlns="http://www.w3.org/2000/svg">
<path d="M63.9813 0H0.01875C0.00839466 0 0 0.00839466 0 0.01875V63.9813C0 63.9916 0.00839466 64 0.01875 64H63.9813C63.9916 64 64 63.9916 64 63.9813V0.01875C64 0.00839466 63.9916 0 63.9813 0Z" fill="#B81004"/>
<path d="M40.75 13.5H23.25C17.8652 13.5 13.5 17.8652 13.5 23.25V40.75C13.5 46.1348 17.8652 50.5 23.25 50.5H40.75C46.1348 50.5 50.5 46.1348 50.5 40.75V23.25C50.5 17.8652 46.1348 13.5 40.75 13.5Z" stroke="white" stroke-width="4"/>
<path d="M32 40.625C36.7635 40.625 40.625 36.7635 40.625 32C40.625 27.2365 36.7635 23.375 32 23.375C27.2365 23.375 23.375 27.2365 23.375 32C23.375 36.7635 27.2365 40.625 32 40.625Z" stroke="white" stroke-width="4"/>
<path d="M42.875 23.5C44.1867 23.5 45.25 22.4367 45.25 21.125C45.25 19.8133 44.1867 18.75 42.875 18.75C41.5633 18.75 40.5 19.8133 40.5 21.125C40.5 22.4367 41.5633 23.5 42.875 23.5Z" fill="white"/>
</svg>
