<svg width="64" height="64" viewBox="0 0 64 64" fill="none" xmlns="http://www.w3.org/2000/svg">
<path d="M63.9813 0H0.01875C0.00839466 0 0 0.00839466 0 0.01875V63.9813C0 63.9916 0.00839466 64 0.01875 64H63.9813C63.9916 64 64 63.9916 64 63.9813V0.01875C64 0.00839466 63.9916 0 63.9813 0Z" fill="#B81004"/>
<path d="M54.625 18.9999C53.1431 19.9829 51.4033 20.5049 49.625 20.4999C51.5262 19.38 52.9497 17.6006 53.625 15.4999C52.0491 16.8322 50.0632 17.5824 48 17.6249C46.6397 16.2317 44.8643 15.3173 42.9401 15.0188C41.016 14.7202 39.047 15.0538 37.3285 15.9694C35.61 16.885 34.2348 18.3332 33.4093 20.0967C32.5838 21.8601 32.3524 23.8438 32.75 25.7499C29.2492 25.5651 25.8264 24.6461 22.7038 23.0525C19.5812 21.4589 16.8287 19.2264 14.625 16.4999C13.5466 18.4512 13.2309 20.7333 13.739 22.9041C14.247 25.0749 15.5427 26.9799 17.375 28.2499C15.9921 28.2695 14.6234 27.9701 13.375 27.3749C13.4086 29.3885 14.1166 31.3326 15.3856 32.8962C16.6547 34.4599 18.4115 35.5527 20.375 35.9999C19.0679 36.3413 17.7008 36.384 16.375 36.1249C16.9469 37.9087 18.0612 39.4696 19.5625 40.59C21.0638 41.7103 22.8772 42.3343 24.75 42.3749C20.7947 44.7744 16.2511 46.0293 11.625 45.9999C15.4994 48.5293 19.9998 49.9339 24.6251 50.0572C29.2505 50.1806 33.8193 49.0179 37.823 46.6986C41.8267 44.3793 45.1082 40.9944 47.3023 36.9206C49.4963 32.8469 50.5167 28.2442 50.25 23.6249C51.8995 22.276 53.3697 20.7218 54.625 18.9999Z" fill="white"/>
</svg>
