<svg width="64" height="64" viewBox="0 0 64 64" fill="none" xmlns="http://www.w3.org/2000/svg">
<path d="M63.9813 0H0.01875C0.00839466 0 0 0.00839466 0 0.01875V63.9813C0 63.9916 0.00839466 64 0.01875 64H63.9813C63.9916 64 64 63.9916 64 63.9813V0.01875C64 0.00839466 63.9916 0 63.9813 0Z" fill="#B81004"/>
<path d="M41.25 64V40.25H49.25L50.375 31H41.25V25.125C41.25 22.375 42 20.625 45.875 20.625H50.75V12.375C49.875 12.25 47 12 43.625 12C36.5 12 31.75 16.25 31.75 24.25V31H23.75V40.25H31.75V64H41.25Z" fill="white"/>
</svg>
