<svg width="32" height="32" viewBox="0 0 32 32" fill="none" xmlns="http://www.w3.org/2000/svg">
<path d="M31.9906 0H0.009375C0.00419733 0 0 0.00419733 0 0.009375V31.9906C0 31.9958 0.00419733 32 0.009375 32H31.9906C31.9958 32 32 31.9958 32 31.9906V0.009375C32 0.00419733 31.9958 0 31.9906 0Z" fill="#B81004"/>
<path d="M20.625 32V20.125H24.625L25.1875 15.5H20.625V12.5625C20.625 11.1875 21 10.3125 22.9375 10.3125H25.375V6.1875C24.9375 6.125 23.5 6 21.8125 6C18.25 6 15.875 8.125 15.875 12.125V15.5H11.875V20.125H15.875V32H20.625Z" fill="white"/>
</svg>
