<svg width="32" height="32" viewBox="0 0 32 32" fill="none" xmlns="http://www.w3.org/2000/svg">
<path d="M31.9906 0H0.009375C0.00419733 0 0 0.00419733 0 0.009375V31.9906C0 31.9958 0.00419733 32 0.009375 32H31.9906C31.9958 32 32 31.9958 32 31.9906V0.009375C32 0.00419733 31.9958 0 31.9906 0Z" fill="#B81004"/>
<path d="M27.3125 9.49985C26.5716 9.99134 25.7016 10.2523 24.8125 10.2498C25.7631 9.68986 26.4748 8.80018 26.8125 7.74985C26.0245 8.41598 25.0316 8.7911 24 8.81235C23.3199 8.11575 22.4321 7.65851 21.4701 7.50925C20.508 7.36 19.5235 7.52678 18.6642 7.98457C17.805 8.44236 17.1174 9.16646 16.7047 10.0482C16.2919 10.93 16.1762 11.9218 16.375 12.8748C14.6246 12.7824 12.9132 12.3229 11.3519 11.5261C9.79061 10.7293 8.41436 9.61308 7.3125 8.24985C6.77332 9.2255 6.61545 10.3665 6.86948 11.4519C7.12351 12.5373 7.77135 13.4898 8.6875 14.1248C7.99607 14.1346 7.3117 13.9849 6.6875 13.6873C6.70431 14.6941 7.05829 15.6662 7.69281 16.448C8.32733 17.2298 9.20574 17.7762 10.1875 17.9998C9.53397 18.1705 8.85041 18.1919 8.1875 18.0623C8.47347 18.9542 9.03061 19.7347 9.78124 20.2949C10.5319 20.855 11.4386 21.167 12.375 21.1873C10.3973 22.3871 8.12557 23.0145 5.8125 22.9998C7.74971 24.2645 9.99989 24.9668 12.3126 25.0285C14.6252 25.0902 16.9096 24.5088 18.9115 23.3492C20.9134 22.1895 22.5541 20.4971 23.6511 18.4602C24.7481 16.4233 25.2584 14.122 25.125 11.8123C25.9497 11.1379 26.6849 10.3608 27.3125 9.49985Z" fill="white"/>
</svg>
