<svg width="32" height="32" viewBox="0 0 32 32" fill="none" xmlns="http://www.w3.org/2000/svg">
<path d="M31.9906 0H0.009375C0.00419733 0 0 0.00419733 0 0.009375V31.9906C0 31.9958 0.00419733 32 0.009375 32H31.9906C31.9958 32 32 31.9958 32 31.9906V0.009375C32 0.00419733 31.9958 0 31.9906 0Z" fill="#B81004"/>
<path d="M20.375 6.75H11.625C8.93261 6.75 6.75 8.93261 6.75 11.625V20.375C6.75 23.0674 8.93261 25.25 11.625 25.25H20.375C23.0674 25.25 25.25 23.0674 25.25 20.375V11.625C25.25 8.93261 23.0674 6.75 20.375 6.75Z" stroke="white" stroke-width="2"/>
<path d="M16 20.3125C18.3817 20.3125 20.3125 18.3817 20.3125 16C20.3125 13.6183 18.3817 11.6875 16 11.6875C13.6183 11.6875 11.6875 13.6183 11.6875 16C11.6875 18.3817 13.6183 20.3125 16 20.3125Z" stroke="white" stroke-width="2"/>
<path d="M21.4375 11.75C22.0933 11.75 22.625 11.2183 22.625 10.5625C22.625 9.90666 22.0933 9.375 21.4375 9.375C20.7817 9.375 20.25 9.90666 20.25 10.5625C20.25 11.2183 20.7817 11.75 21.4375 11.75Z" fill="white"/>
</svg>
