<svg width="170" height="40" viewBox="0 0 170 40" fill="none" xmlns="http://www.w3.org/2000/svg">
<rect width="170" height="40" fill="#B81004"/>
<path d="M15.9007 29H10.4407L17.8607 9.4H23.4607L30.8807 29H25.4207L24.1607 25.5H17.1607L15.9007 29ZM18.4207 21.86H22.9007L20.6607 15.28L18.4207 21.86ZM46.8527 28.72C42.6901 29.0933 39.2367 29.28 36.4927 29.28C34.6634 29.28 33.3194 28.8507 32.4607 27.992C31.6021 27.1333 31.1727 25.7893 31.1727 23.96V15C31.1727 13.04 31.6114 11.6213 32.4887 10.744C33.3847 9.848 34.8127 9.4 36.7727 9.4H46.8527V13.32H37.8927C36.7727 13.32 36.2127 13.88 36.2127 15V23.96C36.2127 24.3893 36.3341 24.7347 36.5767 24.996C36.8381 25.2387 37.1647 25.36 37.5567 25.36C37.9487 25.36 38.3781 25.36 38.8447 25.36C39.3114 25.3413 39.7967 25.3227 40.3007 25.304C40.8047 25.2853 41.3087 25.2667 41.8127 25.248C42.3354 25.2293 42.9981 25.192 43.8007 25.136C44.6221 25.08 45.6394 25.0147 46.8527 24.94V28.72ZM65.896 18.08L61.976 25.08H58.056L54.136 18.08V29H49.096V9.4H54.416L60.016 19.76L65.616 9.4H70.936V29H65.896V18.08ZM89.847 29H74.307V9.4H89.847V13.32H79.347V17.1H87.607V21.02H79.347V25.08H89.847V29ZM99.8869 24.94C105.002 25.22 108.464 25.36 110.275 25.36C110.704 25.36 111.04 25.2387 111.283 24.996C111.544 24.7347 111.675 24.3893 111.675 23.96V21.44H105.235C103.275 21.44 101.847 21.0013 100.951 20.124C100.074 19.228 99.6349 17.8 99.6349 15.84V15C99.6349 13.04 100.074 11.6213 100.951 10.744C101.847 9.848 103.275 9.4 105.235 9.4H115.063V13.32H106.355C105.235 13.32 104.675 13.88 104.675 15V15.56C104.675 16.68 105.235 17.24 106.355 17.24H111.395C113.224 17.24 114.568 17.6693 115.427 18.528C116.286 19.3867 116.715 20.7307 116.715 22.56V23.96C116.715 25.7893 116.286 27.1333 115.427 27.992C114.568 28.8507 113.224 29.28 111.395 29.28C110.443 29.28 109.435 29.2613 108.371 29.224L105.795 29.112C103.891 29.0187 101.922 28.888 99.8869 28.72V24.94ZM118.393 24.8H123.433V29H118.393V24.8ZM137.854 29H132.394L139.814 9.4H145.414L152.834 29H147.374L146.114 25.5H139.114L137.854 29ZM140.374 21.86H144.854L142.614 15.28L140.374 21.86ZM153.393 24.8H158.433V29H153.393V24.8Z" fill="white"/>
</svg>
